<svg width="1200" height="675" viewBox="0 0 1200 675" fill="none" xmlns="http://www.w3.org/2000/svg">
  <defs><linearGradient id="a" x1="73" y1="52" x2="1123" y2="641" gradientUnits="userSpaceOnUse"><stop stop-color="#EDF3F0"/><stop offset="1" stop-color="#DBE9E4"/></linearGradient><filter id="s"><feDropShadow dy="18" stdDeviation="22" flood-color="#17473A" flood-opacity=".15"/></filter></defs>
  <rect width="1200" height="675" rx="36" fill="url(#a)"/>
  <path d="M278 340H922" stroke="#B8CFC7" stroke-width="8" stroke-linecap="round" stroke-dasharray="12 20"/>
  <g filter="url(#s)"><rect x="136" y="211" width="275" height="258" rx="31" fill="white"/><rect x="789" y="145" width="275" height="389" rx="31" fill="#17473A"/></g>
  <rect x="180" y="258" width="187" height="18" rx="9" fill="#225C4B"/><rect x="180" y="305" width="151" height="12" rx="6" fill="#92928C"/><rect x="180" y="337" width="171" height="12" rx="6" fill="#DEDED8"/>
  <rect x="180" y="390" width="62" height="45" rx="14" fill="#DBE9E4"/><rect x="255" y="390" width="112" height="45" rx="14" fill="#F7F7F2"/>
  <circle cx="926" cy="229" r="43" fill="#225C4B"/><path d="M906 230L921 245L948 215" stroke="white" stroke-width="8" stroke-linecap="round" stroke-linejoin="round"/>
  <rect x="838" y="308" width="177" height="14" rx="7" fill="#B8CFC7"/><rect x="838" y="346" width="138" height="10" rx="5" fill="#92928C"/><rect x="838" y="378" width="157" height="10" rx="5" fill="#92928C"/>
  <rect x="838" y="431" width="177" height="55" rx="18" fill="#225C4B"/>
  <g filter="url(#s)"><circle cx="600" cy="340" r="103" fill="#225C4B"/></g>
  <path d="M552 340H648M618 310L648 340L618 370" stroke="white" stroke-width="13" stroke-linecap="round" stroke-linejoin="round"/>
  <circle cx="600" cy="340" r="135" stroke="#4B806E" stroke-width="4" stroke-dasharray="9 13"/>
</svg>
